<mxfile host="app.diagrams.net" modified="2020-09-28T03:43:59.040Z" agent="5.0 (Windows NT 10.0; Win64; x64) AppleWebKit/537.36 (KHTML, like Gecko) Chrome/85.0.4183.102 Safari/537.36" etag="ZT9ZQjKUzLrh51MHtv7e" version="13.7.3" type="github">
  <diagram id="gsMrObz3b9oR-D44nO-9" name="Page-1">
    <mxGraphModel dx="782" dy="1535" grid="1" gridSize="10" guides="1" tooltips="1" connect="1" arrows="1" fold="1" page="1" pageScale="1" pageWidth="850" pageHeight="1100" math="0" shadow="0">
      <root>
        <mxCell id="0" />
        <mxCell id="1" parent="0" />
        <mxCell id="1NBpaKQcDpMzkzBOT2tJ-1" value="Catalogue" style="swimlane;childLayout=stackLayout;horizontal=1;startSize=30;horizontalStack=0;rounded=1;fontSize=14;fontStyle=0;strokeWidth=2;resizeParent=0;resizeLast=1;shadow=0;dashed=0;align=center;" parent="1" vertex="1">
          <mxGeometry x="280" y="40" width="160" height="120" as="geometry">
            <mxRectangle x="280" y="40" width="100" height="30" as="alternateBounds" />
          </mxGeometry>
        </mxCell>
        <mxCell id="1NBpaKQcDpMzkzBOT2tJ-2" value="+ID&#xa;+Category&#xa;+UseCase&#xa;+Level&#xa;+Description" style="align=left;strokeColor=none;fillColor=none;spacingLeft=4;fontSize=12;verticalAlign=top;resizable=0;rotatable=0;part=1;" parent="1NBpaKQcDpMzkzBOT2tJ-1" vertex="1">
          <mxGeometry y="30" width="160" height="90" as="geometry" />
        </mxCell>
        <mxCell id="1NBpaKQcDpMzkzBOT2tJ-29" value="" style="edgeStyle=entityRelationEdgeStyle;fontSize=12;html=1;endArrow=ERoneToMany;entryX=0;entryY=0.25;entryDx=0;entryDy=0;" parent="1" target="1NBpaKQcDpMzkzBOT2tJ-6" edge="1">
          <mxGeometry width="100" height="100" relative="1" as="geometry">
            <mxPoint x="440" y="70" as="sourcePoint" />
            <mxPoint x="570" y="40" as="targetPoint" />
          </mxGeometry>
        </mxCell>
        <mxCell id="1NBpaKQcDpMzkzBOT2tJ-31" value="" style="edgeStyle=entityRelationEdgeStyle;fontSize=12;html=1;endArrow=ERmandOne;startArrow=ERmandOne;entryX=-0.012;entryY=0.659;entryDx=0;entryDy=0;entryPerimeter=0;exitX=1;exitY=0.25;exitDx=0;exitDy=0;" parent="1" source="1NBpaKQcDpMzkzBOT2tJ-8" target="1NBpaKQcDpMzkzBOT2tJ-7" edge="1">
          <mxGeometry width="100" height="100" relative="1" as="geometry">
            <mxPoint x="630" y="220" as="sourcePoint" />
            <mxPoint x="730" y="120" as="targetPoint" />
          </mxGeometry>
        </mxCell>
        <mxCell id="1NBpaKQcDpMzkzBOT2tJ-6" value="CatalogueSubCatagory" style="swimlane;childLayout=stackLayout;horizontal=1;startSize=30;horizontalStack=0;rounded=1;fontSize=14;fontStyle=0;strokeWidth=2;resizeParent=0;resizeLast=1;shadow=0;dashed=0;align=center;" parent="1" vertex="1">
          <mxGeometry x="590" y="-10" width="160" height="140" as="geometry">
            <mxRectangle x="340" y="130" width="110" height="30" as="alternateBounds" />
          </mxGeometry>
        </mxCell>
        <mxCell id="1NBpaKQcDpMzkzBOT2tJ-7" value="+ID&#xa;+CatID&#xa;+Skill&#xa;+Duration&#xa;+RepoURL&#xa;+Description" style="align=left;strokeColor=none;fillColor=none;spacingLeft=4;fontSize=12;verticalAlign=top;resizable=0;rotatable=0;part=1;" parent="1NBpaKQcDpMzkzBOT2tJ-6" vertex="1">
          <mxGeometry y="30" width="160" height="110" as="geometry" />
        </mxCell>
        <mxCell id="1NBpaKQcDpMzkzBOT2tJ-8" value="ResourceSpecifications" style="swimlane;childLayout=stackLayout;horizontal=1;startSize=30;horizontalStack=0;rounded=1;fontSize=14;fontStyle=0;strokeWidth=2;resizeParent=0;resizeLast=1;shadow=0;dashed=0;align=center;" parent="1" vertex="1">
          <mxGeometry x="290" y="250" width="200" height="130" as="geometry">
            <mxRectangle x="520" y="280" width="110" height="30" as="alternateBounds" />
          </mxGeometry>
        </mxCell>
        <mxCell id="1NBpaKQcDpMzkzBOT2tJ-9" value="+ID&#xa;+SubID&#xa;+vCPU&#xa;+Memory&#xa;+Storage&#xa;+Description" style="align=left;strokeColor=none;fillColor=none;spacingLeft=4;fontSize=12;verticalAlign=top;resizable=0;rotatable=0;part=1;" parent="1NBpaKQcDpMzkzBOT2tJ-8" vertex="1">
          <mxGeometry y="30" width="200" height="100" as="geometry" />
        </mxCell>
        <mxCell id="1NBpaKQcDpMzkzBOT2tJ-25" value="Subscription" style="swimlane;childLayout=stackLayout;horizontal=1;startSize=30;horizontalStack=0;rounded=1;fontSize=14;fontStyle=0;strokeWidth=2;resizeParent=0;resizeLast=1;shadow=0;dashed=0;align=center;" parent="1" vertex="1">
          <mxGeometry x="30" y="140" width="160" height="160" as="geometry">
            <mxRectangle x="260" y="250" width="110" height="30" as="alternateBounds" />
          </mxGeometry>
        </mxCell>
        <mxCell id="1NBpaKQcDpMzkzBOT2tJ-26" value="+ID&#xa;+TraineeId&#xa;+TraineeName&#xa;+RequestDate&#xa;+ExpiryDate&#xa;+CatalogID&#xa;+Status&#xa;+Description" style="align=left;strokeColor=none;fillColor=none;spacingLeft=4;fontSize=12;verticalAlign=top;resizable=0;rotatable=0;part=1;" parent="1NBpaKQcDpMzkzBOT2tJ-25" vertex="1">
          <mxGeometry y="30" width="160" height="130" as="geometry" />
        </mxCell>
        <mxCell id="-JVgOhSvtWBvgApzP8Xh-8" value="" style="edgeStyle=entityRelationEdgeStyle;fontSize=12;html=1;endArrow=ERoneToMany;exitX=1;exitY=0;exitDx=0;exitDy=0;entryX=0;entryY=0;entryDx=0;entryDy=0;" edge="1" parent="1" source="1NBpaKQcDpMzkzBOT2tJ-26" target="1NBpaKQcDpMzkzBOT2tJ-2">
          <mxGeometry width="100" height="100" relative="1" as="geometry">
            <mxPoint x="140" y="460" as="sourcePoint" />
            <mxPoint x="240" y="360" as="targetPoint" />
          </mxGeometry>
        </mxCell>
      </root>
    </mxGraphModel>
  </diagram>
</mxfile>
